<?xml version="1.0" standalone="no"?>
<!DOCTYPE svg PUBLIC "-//W3C//DTD SVG 20010904//EN"
 "http://www.w3.org/TR/2001/REC-SVG-20010904/DTD/svg10.dtd">
<svg version="1.0" xmlns="http://www.w3.org/2000/svg"
 width="520.000000pt" height="283.000000pt" viewBox="0 0 520.000000 283.000000"
 preserveAspectRatio="xMidYMid meet">

<g transform="translate(0.000000,283.000000) scale(0.100000,-0.100000)"
fill="#000000" stroke="none">
<path d="M1800 2670 l0 -160 55 0 55 0 0 110 0 110 110 0 110 0 0 50 0 50
-165 0 -165 0 0 -160z"/>
<path d="M3070 2780 l0 -50 115 0 115 0 0 -110 0 -110 50 0 50 0 0 160 0 160
-165 0 -165 0 0 -50z"/>
<path d="M2310 2480 c-69 -10 -133 -19 -142 -19 -19 -1 -23 -26 -12 -68 5 -18
14 -23 40 -23 19 0 37 -6 39 -12 9 -24 55 -370 50 -378 -3 -4 -18 -10 -35 -13
-27 -6 -30 -10 -30 -47 0 -24 5 -42 13 -45 6 -2 86 6 177 18 l165 23 5 46 c9
70 35 94 121 107 27 5 49 7 49 5 0 -2 -57 -101 -127 -221 -115 -199 -126 -222
-124 -263 1 -24 4 -46 6 -48 2 -2 122 12 267 32 145 20 270 36 277 36 10 0 12
10 8 38 -3 20 -11 74 -18 120 l-11 82 -32 0 c-57 0 -76 -10 -76 -39 0 -55 -20
-101 -51 -117 -28 -14 -129 -36 -129 -27 0 1 57 101 126 221 117 203 125 220
121 260 -3 24 -7 45 -9 48 -4 3 -393 -45 -479 -60 l-26 -5 -16 127 c-16 119
-16 128 0 140 9 6 25 12 35 12 13 0 18 8 18 29 0 69 -1 69 -200 41z"/>
<path d="M1800 1400 l0 -160 165 0 165 0 0 50 0 50 -110 0 -110 0 0 110 0 110
-55 0 -55 0 0 -160z"/>
<path d="M3300 1450 l0 -110 -115 0 -115 0 0 -50 0 -50 165 0 165 0 0 160 0
160 -50 0 -50 0 0 -110z"/>
<path d="M1056 768 c-61 -17 -121 -83 -135 -149 -19 -87 6 -186 57 -232 49
-45 153 -59 220 -32 24 10 38 12 40 5 2 -5 24 -10 48 -10 l44 0 0 80 c0 79 0
80 25 80 22 0 25 4 25 35 l0 35 -120 0 -120 0 0 -34 c0 -28 4 -35 23 -38 18
-2 23 -10 25 -45 3 -35 0 -42 -19 -48 -30 -10 -71 23 -82 66 -5 19 -7 67 -5
107 4 57 10 78 26 94 42 43 105 14 119 -54 5 -25 10 -28 44 -28 l39 0 0 85 0
86 -52 -2 c-29 -1 -78 0 -108 4 -30 3 -73 1 -94 -5z"/>
<path d="M4923 771 c-49 -13 -83 -39 -99 -76 -19 -46 -18 -85 3 -115 27 -39
42 -48 128 -75 97 -30 108 -37 103 -61 -10 -53 -112 -32 -149 31 -17 29 -27
35 -55 35 l-34 0 0 -80 0 -80 34 0 c19 0 36 4 38 10 2 6 22 4 52 -5 92 -28
175 -14 226 36 26 27 30 38 30 86 0 80 -34 112 -153 143 -90 24 -109 38 -87
65 28 33 111 12 135 -35 13 -26 21 -30 55 -30 l40 0 0 75 0 75 -34 0 c-19 0
-37 -4 -41 -10 -3 -5 -15 -6 -29 -1 -36 14 -128 21 -163 12z"/>
<path d="M0 731 c0 -23 5 -30 23 -33 22 -3 22 -6 22 -138 0 -132 0 -135 -23
-138 -18 -3 -22 -10 -22 -38 l0 -34 120 0 120 0 0 34 c0 28 -4 35 -22 38 -23
3 -23 6 -23 138 0 132 0 135 23 138 17 3 22 10 22 33 l0 29 -120 0 -120 0 0
-29z"/>
<path d="M340 731 c0 -23 5 -30 23 -33 22 -3 22 -6 22 -138 0 -132 0 -135 -22
-138 -19 -3 -23 -10 -23 -38 l0 -34 90 0 90 0 0 34 c0 28 -4 35 -22 38 -22 3
-23 8 -26 103 l-2 100 76 -137 75 -138 75 0 74 0 0 171 c0 162 1 171 20 176
14 4 20 14 20 34 l0 29 -90 0 -90 0 0 -30 c0 -23 4 -30 20 -30 28 0 31 -14 28
-101 l-3 -74 -64 118 -64 117 -104 0 -103 0 0 -29z"/>
<path d="M1561 613 c-59 -171 -61 -175 -89 -188 -16 -7 -22 -19 -22 -42 l0
-33 95 0 95 0 0 35 c0 31 -3 35 -25 35 -28 0 -28 0 -15 34 8 23 15 26 59 26
35 0 51 -4 55 -16 12 -31 6 -44 -19 -44 -22 0 -25 -4 -25 -35 l0 -35 130 0
130 0 0 34 c0 30 -4 35 -27 38 -31 3 -30 1 -93 206 l-41 132 -79 0 -78 0 -51
-147z m114 -30 c6 -31 5 -33 -20 -33 -22 0 -26 3 -20 18 3 9 9 30 12 46 7 32
16 21 28 -31z"/>
<path d="M2380 685 l0 -75 39 0 c35 0 39 3 44 30 8 37 46 62 87 58 l32 -3
-106 -137 c-90 -115 -106 -142 -106 -172 l0 -36 195 0 195 0 0 85 0 85 -45 0
c-42 0 -45 -2 -45 -25 0 -38 -42 -75 -85 -75 -19 0 -35 3 -35 6 0 3 47 67 105
142 76 98 105 143 105 164 l0 28 -190 0 -190 0 0 -75z"/>
<path d="M2983 743 c-4 -10 -30 -83 -58 -163 -39 -114 -55 -147 -72 -155 -17
-7 -23 -18 -23 -42 l0 -33 90 0 90 0 0 35 c0 29 -4 35 -21 35 -17 0 -20 4 -15
23 3 12 6 25 6 30 0 4 24 7 54 7 47 0 54 -3 60 -22 9 -35 8 -38 -19 -38 -22 0
-25 -4 -25 -35 l0 -35 125 0 125 0 0 35 c0 28 -4 35 -19 35 -10 0 -23 6 -29
13 -5 6 -32 83 -58 170 l-48 157 -78 0 c-66 0 -80 -3 -85 -17z m77 -190 c0 -2
-11 -3 -25 -3 -29 0 -29 1 -14 55 l12 40 13 -45 c8 -25 14 -46 14 -47z"/>
<path d="M3310 730 c0 -18 5 -30 13 -30 19 0 49 -35 96 -113 33 -55 41 -76 41
-117 0 -47 -2 -50 -25 -50 -22 0 -25 -4 -25 -35 l0 -35 125 0 125 0 0 35 c0
31 -3 35 -25 35 -23 0 -25 3 -25 53 0 46 6 61 53 132 28 44 62 84 75 90 15 7
22 18 22 37 l0 28 -95 0 -95 0 0 -29 c0 -20 6 -30 20 -34 20 -5 20 -5 -1 -41
-11 -20 -24 -38 -28 -40 -3 -3 -17 14 -29 36 l-23 39 20 6 c15 4 21 13 21 34
l0 29 -120 0 -120 0 0 -30z"/>
<path d="M3876 618 c-60 -176 -71 -198 -96 -198 -16 0 -20 -7 -20 -35 l0 -35
95 0 95 0 0 35 c0 28 -4 35 -20 35 -20 0 -25 15 -14 44 4 12 20 16 55 16 44 0
51 -3 59 -26 13 -34 13 -34 -15 -34 -22 0 -25 -4 -25 -35 l0 -35 125 0 125 0
0 35 c0 30 -3 35 -24 35 -17 0 -27 7 -32 23 -5 12 -29 87 -54 167 l-46 145
-79 3 -80 3 -49 -143z m112 -28 c10 -39 9 -40 -18 -40 -27 0 -27 0 -17 40 6
22 14 40 18 40 4 0 11 -18 17 -40z"/>
<path d="M4270 680 l0 -80 34 0 c29 0 35 4 41 28 9 35 33 62 57 62 17 0 18 -9
16 -132 l-3 -133 -27 -3 c-25 -3 -28 -8 -28 -38 l0 -34 135 0 135 0 0 34 c0
32 -3 35 -32 38 l-33 3 -3 133 c-2 125 -2 132 17 132 26 0 48 -23 56 -60 6
-26 11 -30 41 -30 l34 0 0 80 0 80 -220 0 -220 0 0 -80z"/>
<path d="M1790 199 c-49 -11 -70 -41 -70 -101 0 -70 31 -98 109 -98 68 0 97
17 110 65 26 94 -45 158 -149 134z m68 -103 c-2 -40 -7 -52 -22 -54 -24 -5
-36 14 -36 60 0 45 25 75 47 57 9 -9 13 -28 11 -63z"/>
<path d="M2330 199 c-79 -17 -108 -113 -51 -170 25 -25 37 -29 85 -29 44 0 61
5 83 24 24 21 28 32 28 75 0 38 -5 56 -21 71 -26 27 -78 39 -124 29z m65 -99
c0 -23 -7 -46 -17 -56 -15 -15 -17 -14 -33 10 -20 30 -15 94 7 107 21 13 43
-18 43 -61z"/>
<path d="M2603 203 c-59 -12 -91 -100 -58 -162 18 -36 31 -41 116 -41 l69 0 0
35 c0 19 5 35 10 35 6 0 10 9 10 20 0 11 -7 20 -15 20 -11 0 -15 12 -15 45 0
42 -2 45 -27 45 -16 0 -37 2 -48 4 -11 2 -30 2 -42 -1z m61 -49 c22 -22 20
-44 -4 -44 -22 0 -29 -35 -8 -42 7 -3 9 -12 4 -23 -6 -17 -8 -18 -24 -2 -20
21 -22 88 -3 111 16 20 16 20 35 0z"/>
<path d="M1180 180 c0 -11 5 -20 10 -20 6 0 10 -27 10 -60 0 -33 -4 -60 -10
-60 -5 0 -10 -9 -10 -20 0 -18 7 -20 60 -20 52 0 60 2 60 19 0 10 -7 21 -15
25 -31 12 -15 34 30 40 72 11 97 54 55 96 -17 17 -33 20 -105 20 -78 0 -85 -2
-85 -20z m130 -40 c0 -13 -7 -20 -20 -20 -13 0 -20 7 -20 20 0 13 7 20 20 20
13 0 20 -7 20 -20z"/>
<path d="M1430 180 c0 -11 7 -20 15 -20 12 0 15 -13 15 -60 0 -47 -3 -60 -15
-60 -8 0 -15 -9 -15 -20 0 -19 7 -20 120 -20 113 0 120 1 120 20 0 11 -7 20
-15 20 -12 0 -15 13 -15 60 0 47 3 60 15 60 8 0 15 9 15 20 0 19 -7 20 -120
20 -113 0 -120 -1 -120 -20z m140 -40 c0 -13 -7 -20 -20 -20 -13 0 -20 7 -20
20 0 13 7 20 20 20 13 0 20 -7 20 -20z m0 -75 c0 -18 -5 -25 -20 -25 -15 0
-20 7 -20 25 0 18 5 25 20 25 15 0 20 -7 20 -25z"/>
<path d="M1990 160 c0 -33 3 -40 19 -40 11 0 23 9 26 20 12 39 25 19 25 -40 0
-47 -3 -60 -15 -60 -8 0 -15 -9 -15 -20 0 -18 7 -20 70 -20 63 0 70 2 70 20 0
13 -7 20 -20 20 -18 0 -20 7 -20 60 0 59 16 83 27 40 3 -11 14 -20 24 -20 15
0 19 7 19 40 l0 40 -105 0 -105 0 0 -40z"/>
<path d="M2800 180 c0 -11 7 -20 15 -20 12 0 15 -13 15 -60 0 -47 -3 -60 -15
-60 -8 0 -15 -9 -15 -20 0 -18 7 -20 60 -20 53 0 60 2 60 20 0 11 -4 20 -10
20 -5 0 -10 12 -10 26 0 35 24 26 28 -12 5 -41 19 -54 58 -54 28 0 36 5 44 26
13 33 13 34 -5 34 -8 0 -16 -6 -16 -12 -1 -7 -5 3 -8 22 -4 19 -3 43 2 53 13
28 0 64 -25 71 -13 3 -58 6 -100 6 -71 0 -78 -2 -78 -20z m133 -26 c9 -10 -4
-34 -19 -34 -8 0 -14 9 -14 20 0 19 19 27 33 14z"/>
<path d="M3137 193 c-2 -5 -14 -39 -27 -76 -12 -38 -28 -71 -36 -74 -8 -3 -14
-14 -14 -24 0 -16 8 -19 50 -19 43 0 50 3 50 20 0 11 -4 20 -10 20 -5 0 -10 5
-10 10 0 6 9 10 19 10 11 0 23 -4 26 -10 3 -5 1 -10 -4 -10 -6 0 -11 -9 -11
-20 0 -18 7 -20 60 -20 52 0 60 2 60 19 0 10 -6 21 -14 24 -8 3 -24 40 -36 81
l-23 76 -38 0 c-21 0 -40 -3 -42 -7z m33 -83 c0 -5 -5 -10 -11 -10 -5 0 -7 5
-4 10 3 6 8 10 11 10 2 0 4 -4 4 -10z"/>
<path d="M3320 180 c0 -11 5 -20 10 -20 6 0 10 -27 10 -60 0 -33 -4 -60 -10
-60 -5 0 -10 -9 -10 -20 0 -18 7 -20 60 -20 53 0 60 2 60 20 0 11 -7 20 -15
20 -8 0 -15 8 -15 19 0 15 10 20 45 25 72 11 97 54 55 96 -17 17 -33 20 -105
20 -78 0 -85 -2 -85 -20z m130 -40 c0 -13 -7 -20 -20 -20 -13 0 -20 7 -20 20
0 13 7 20 20 20 13 0 20 -7 20 -20z"/>
<path d="M3570 180 c0 -11 7 -20 15 -20 12 0 15 -13 15 -60 0 -47 -3 -60 -15
-60 -8 0 -15 -9 -15 -20 0 -19 7 -20 120 -20 113 0 120 1 120 20 0 11 -7 20
-15 20 -12 0 -15 13 -15 60 0 47 3 60 15 60 8 0 15 9 15 20 0 19 -7 20 -120
20 -113 0 -120 -1 -120 -20z m140 -40 c0 -13 -7 -20 -20 -20 -13 0 -20 7 -20
20 0 13 7 20 20 20 13 0 20 -7 20 -20z m0 -75 c0 -18 -5 -25 -20 -25 -15 0
-20 7 -20 25 0 18 5 25 20 25 15 0 20 -7 20 -25z"/>
<path d="M3840 180 c0 -11 4 -20 10 -20 5 0 21 -17 35 -37 25 -38 34 -83 15
-83 -5 0 -10 -9 -10 -20 0 -18 7 -20 60 -20 53 0 60 2 60 20 0 11 -4 20 -10
20 -17 0 -11 40 12 81 12 22 28 39 35 39 7 0 13 9 13 20 0 19 -7 20 -110 20
-103 0 -110 -1 -110 -20z m135 -30 c-3 -5 -10 -10 -16 -10 -5 0 -9 5 -9 10 0
6 7 10 16 10 8 0 12 -4 9 -10z"/>
</g>
</svg>
