<?xml version="1.0" standalone="no"?>
<!DOCTYPE svg PUBLIC "-//W3C//DTD SVG 20010904//EN"
 "http://www.w3.org/TR/2001/REC-SVG-20010904/DTD/svg10.dtd">
<svg version="1.0" xmlns="http://www.w3.org/2000/svg"
 width="520.000000pt" height="520.000000pt" viewBox="0 0 520.000000 520.000000"
 preserveAspectRatio="xMidYMid meet">
<metadata>
Created by potrace 1.11, written by Peter Selinger 2001-2013
</metadata>
<g transform="translate(0.000000,520.000000) scale(0.100000,-0.100000)"
fill="#000000" stroke="none">
<path d="M1810 3850 l0 -160 48 0 48 0 -1 109 c-1 91 2 110 15 113 8 2 59 3
113 3 l97 -1 0 48 0 48 -160 0 -160 0 0 -160z"/>
<path d="M3082 3963 l3 -48 105 -1 c58 -1 107 -2 110 -3 3 -1 4 -50 4 -111
l-1 -110 48 0 49 0 0 160 0 160 -161 0 -160 0 3 -47z"/>
<path d="M2448 3674 c-2 -1 -30 -5 -63 -9 -33 -3 -67 -8 -75 -10 -8 -2 -40 -7
-70 -10 -86 -10 -86 -10 -82 -54 4 -37 6 -40 33 -36 37 5 59 -17 60 -58 0 -18
2 -41 5 -52 2 -11 6 -42 10 -70 3 -27 7 -56 9 -63 3 -7 7 -46 11 -86 l6 -75
-36 -6 c-33 -7 -36 -10 -32 -34 2 -14 5 -32 5 -40 1 -10 15 -12 67 -6 36 3 73
8 82 10 9 1 40 6 67 9 142 18 130 12 132 64 3 62 31 89 106 103 32 5 62 9 68
7 5 -2 -8 -32 -29 -68 -190 -321 -223 -385 -219 -416 5 -36 15 -56 25 -50 8 4
60 12 217 31 28 4 61 8 75 10 14 2 61 9 105 15 44 6 89 12 100 14 16 2 20 11
21 45 1 38 -19 168 -28 181 -3 6 -67 2 -85 -5 -8 -3 -13 -23 -13 -52 0 -64
-30 -97 -100 -112 -28 -6 -60 -11 -71 -11 -20 0 -20 1 3 43 37 64 63 110 149
259 79 138 84 148 81 202 l-2 29 -70 -7 c-39 -4 -78 -9 -88 -11 -9 -1 -39 -6
-67 -9 -27 -4 -68 -9 -90 -12 -22 -3 -49 -7 -60 -9 -108 -14 -135 -17 -135
-14 0 2 -5 31 -10 64 -5 33 -13 93 -16 132 -7 77 -5 80 43 87 34 5 20 80 -15
82 -12 1 -23 0 -24 -2z"/>
<path d="M1810 2581 l0 -161 160 0 160 0 0 48 0 48 -106 0 c-58 -1 -109 1
-113 4 -4 3 -7 52 -6 110 l0 105 -47 3 -48 3 0 -160z"/>
<path d="M3302 2648 c0 -51 0 -102 -1 -113 -1 -19 -8 -20 -111 -19 l-110 0 0
-48 0 -48 160 0 160 0 0 160 0 160 -49 0 -49 0 0 -92z"/>
<path d="M1035 1931 c-74 -33 -115 -104 -115 -196 0 -126 76 -208 194 -207 28
0 68 7 88 15 23 10 38 12 40 5 2 -5 20 -11 41 -13 41 -4 38 -10 41 85 1 62 10
82 31 73 11 -4 15 3 15 26 l0 31 -110 0 -110 0 0 -29 c0 -23 5 -30 23 -33 18
-2 22 -10 23 -38 0 -52 -5 -60 -41 -60 -58 0 -84 56 -79 174 4 77 21 112 60
122 40 10 70 -10 89 -60 16 -42 21 -46 51 -46 l34 0 0 84 0 84 -32 -2 c-17 -1
-33 -7 -35 -13 -3 -8 -13 -7 -31 3 -38 20 -129 17 -177 -5z"/>
<path d="M4915 1943 c-61 -15 -107 -86 -97 -150 6 -37 55 -77 118 -96 97 -29
134 -48 134 -68 0 -10 -9 -23 -19 -29 -49 -26 -127 3 -155 58 -14 27 -30 32
-66 23 -3 0 -5 -22 -4 -48 1 -27 2 -60 3 -75 1 -23 4 -26 29 -22 15 3 28 9 30
14 2 5 22 2 45 -7 23 -8 68 -15 99 -15 109 1 173 56 165 141 -7 65 -42 94
-152 126 -100 29 -123 47 -92 73 41 34 126 14 147 -35 10 -23 20 -30 47 -31
l33 -3 0 71 0 70 -29 0 c-17 0 -32 -4 -36 -9 -3 -6 -19 -4 -40 5 -33 13 -117
17 -160 7z"/>
<path d="M0 1910 c0 -25 4 -30 25 -30 21 0 25 -5 26 -32 2 -69 -2 -242 -7
-249 -2 -4 -13 -6 -24 -4 -16 3 -20 -2 -20 -26 0 -30 1 -31 65 -31 180 0 177
0 173 29 -2 17 -10 27 -22 29 -10 1 -22 7 -25 12 -5 8 -7 194 -2 254 0 9 11
18 24 20 16 2 23 11 25 31 l3 27 -120 0 -121 0 0 -30z"/>
<path d="M342 1913 c2 -20 9 -29 26 -31 12 -2 22 -6 23 -10 5 -32 2 -256 -3
-265 -4 -7 -15 -12 -25 -12 -12 0 -19 -9 -21 -27 l-3 -28 91 0 91 0 -3 27 c-2
16 -10 27 -21 29 -11 1 -20 4 -22 6 -6 5 -8 198 -3 203 2 3 37 -56 77 -130 40
-74 79 -135 87 -136 8 0 30 -1 49 -1 83 0 75 -16 75 160 0 86 4 162 8 168 4 6
15 13 25 17 10 4 17 17 17 32 0 25 0 25 -90 25 l-90 0 0 -29 c0 -25 4 -30 28
-33 l27 -3 1 -97 c0 -54 -2 -95 -5 -93 -2 3 -35 60 -72 128 l-67 122 -102 3
-101 3 3 -28z"/>
<path d="M1609 1913 c-6 -15 -28 -77 -49 -138 -58 -167 -61 -175 -71 -176 -5
-1 -14 -2 -21 -3 -13 -1 -20 -56 -6 -57 4 0 24 -1 43 -1 130 0 130 0 130 27 0
18 -7 28 -22 32 -25 6 -29 23 -13 54 8 15 21 19 59 19 45 0 50 -2 61 -31 11
-25 11 -32 0 -39 -7 -4 -19 -6 -25 -3 -13 4 -27 -44 -15 -52 6 -4 163 -8 218
-6 17 1 22 7 22 29 0 21 -5 28 -22 29 -27 2 -32 11 -63 113 -14 47 -36 117
-49 155 l-23 70 -71 3 c-71 3 -72 2 -83 -25z m65 -125 c8 -29 13 -54 11 -56
-2 -3 -17 -5 -33 -7 l-29 -2 15 58 c8 33 16 59 17 59 2 0 10 -23 19 -52z"/>
<path d="M2383 1865 l0 -75 33 0 c28 0 34 4 44 34 15 47 31 58 84 54 l45 -3
-62 -81 c-34 -44 -82 -107 -107 -140 -25 -32 -47 -71 -48 -86 -4 -32 -21 -29
183 -29 69 0 141 0 160 0 l35 1 0 80 0 80 -34 0 c-30 0 -34 -3 -40 -34 -4 -18
-14 -40 -24 -49 -19 -18 -99 -30 -107 -17 -3 4 19 39 48 77 150 194 157 205
157 234 l0 29 -183 0 -183 0 -1 -75z"/>
<path d="M2959 1843 c-18 -54 -43 -127 -56 -163 -22 -63 -47 -95 -64 -84 -5 3
-9 -8 -9 -24 0 -29 2 -30 53 -34 28 -1 69 -2 90 0 33 3 37 6 37 30 0 21 -5 28
-21 29 -29 3 -31 5 -18 41 10 30 14 32 63 32 48 0 52 -2 63 -30 12 -32 1 -50
-27 -45 -11 2 -17 -6 -18 -26 -2 -25 1 -28 30 -31 18 -2 75 -2 126 0 l92 3 -3
27 c-2 15 -10 27 -18 27 -24 1 -37 14 -48 48 -5 17 -28 92 -51 165 l-41 132
-74 0 -73 0 -33 -97z m94 -69 l15 -51 -34 1 c-19 1 -34 4 -34 7 0 16 33 113
36 104 1 -5 9 -33 17 -61z"/>
<path d="M3317 1933 c-15 -14 -6 -44 16 -52 28 -11 44 -30 95 -117 55 -91 57
-161 6 -168 -12 -2 -20 -12 -22 -29 -3 -25 -3 -26 80 -29 46 -2 101 -1 123 2
36 4 40 8 41 32 0 16 -5 27 -10 27 -41 -5 -46 1 -46 51 0 44 7 61 55 136 31
47 65 88 75 91 14 4 20 14 20 34 l0 29 -90 0 -90 0 0 -26 c0 -17 6 -28 20 -31
11 -3 20 -10 20 -15 0 -12 -43 -88 -50 -88 -7 0 -50 76 -50 88 0 5 9 12 20 15
14 3 20 14 20 31 l0 26 -113 0 c-63 0 -117 -3 -120 -7z"/>
<path d="M3930 1938 c0 -2 -24 -72 -53 -156 -52 -149 -78 -199 -97 -187 -6 4
-10 -7 -10 -24 0 -35 10 -38 113 -33 67 4 68 4 65 29 -2 16 -10 27 -21 29 -26
4 -29 8 -21 38 7 29 30 38 84 34 27 -3 37 -9 44 -31 11 -29 7 -37 -21 -41 -11
-2 -19 -13 -21 -29 -4 -30 -10 -28 123 -28 125 0 122 -1 119 24 -1 12 -3 26
-3 30 -1 5 -5 6 -10 3 -23 -15 -50 38 -96 187 l-48 157 -74 0 c-40 0 -73 -1
-73 -2z m55 -140 c15 -62 12 -72 -17 -73 -32 -2 -32 -1 -16 60 14 53 23 57 33
13z"/>
<path d="M4280 1865 l0 -75 29 0 c24 0 30 5 34 30 7 32 46 64 68 55 11 -4 14
-33 14 -136 -1 -136 -6 -152 -47 -144 -14 3 -18 -2 -18 -25 l0 -28 78 -4 c107
-4 187 4 186 20 -1 6 -2 18 -3 26 0 9 -9 13 -19 11 -41 -7 -46 7 -45 140 0 69
5 131 10 136 19 19 62 -11 69 -48 5 -28 10 -33 34 -33 28 0 28 0 32 75 l3 75
-212 0 -213 0 0 -75z"/>
<path d="M1183 1367 c-3 -5 1 -14 10 -18 22 -13 21 -126 -2 -139 -26 -15 3
-28 56 -24 54 5 65 12 40 25 -9 6 -17 21 -17 34 0 22 4 25 36 25 51 0 74 15
74 49 0 16 -6 34 -14 40 -18 15 -174 22 -183 8z m122 -31 c16 -12 17 -16 6
-30 -22 -26 -41 -19 -41 14 0 33 7 37 35 16z"/>
<path d="M1443 1366 c-4 -5 -1 -12 5 -14 8 -2 12 -29 12 -73 0 -58 -3 -69 -17
-69 -13 0 -14 -3 -5 -12 7 -7 33 -12 58 -13 41 0 45 1 39 20 -18 60 -17 65 14
65 25 0 29 -3 26 -22 -11 -65 -13 -61 37 -62 30 -1 49 3 52 11 3 7 -1 13 -9
13 -22 0 -21 122 1 141 21 17 2 26 -51 25 -41 -2 -43 -4 -31 -52 3 -17 -1 -23
-19 -26 -28 -6 -40 14 -25 42 6 10 10 22 10 27 0 12 -90 11 -97 -1z"/>
<path d="M1771 1367 c-68 -40 -64 -147 7 -176 78 -33 162 13 162 87 0 60 -32
93 -96 99 -30 2 -58 -2 -73 -10z m93 -59 c18 -72 -39 -137 -61 -70 -9 25 -8
71 2 100 3 7 15 12 27 10 17 -2 25 -13 32 -40z"/>
<path d="M2000 1338 c0 -28 4 -38 16 -38 8 0 13 4 10 9 -3 4 3 16 13 25 24 22
27 15 26 -59 0 -40 -4 -59 -12 -58 -6 1 -14 -4 -17 -12 -6 -17 -9 -16 67 -19
38 -1 57 2 57 10 0 7 -7 14 -15 18 -11 4 -15 22 -15 71 0 63 1 65 20 55 11 -6
20 -18 20 -26 0 -30 25 -7 27 24 1 36 8 34 -114 36 l-83 1 0 -37z"/>
<path d="M2304 1369 c-39 -20 -59 -82 -42 -131 21 -60 135 -75 186 -25 35 35
35 99 -1 134 -29 29 -106 41 -143 22z m86 -38 c11 -22 13 -80 4 -105 -7 -19
-35 -21 -52 -4 -7 7 -12 33 -12 58 0 64 36 95 60 51z"/>
<path d="M2584 1370 c-28 -11 -53 -66 -47 -104 12 -77 54 -95 185 -77 4 1 6
15 6 33 -1 18 4 34 10 36 7 2 12 9 12 16 0 9 -15 13 -49 12 -57 -1 -72 -11
-47 -29 11 -8 15 -19 10 -30 -7 -20 -25 -22 -42 -5 -16 16 -16 100 0 116 19
19 44 14 56 -13 6 -14 19 -25 27 -25 13 0 15 9 13 37 l-3 37 -55 3 c-30 1 -64
-2 -76 -7z"/>
<path d="M2811 1372 c-16 -5 -13 -22 4 -22 12 0 15 -14 15 -64 0 -36 -4 -68
-10 -71 -5 -3 -10 -12 -10 -19 0 -21 104 -14 108 8 2 9 -2 15 -9 14 -7 -2 -13
9 -14 25 -1 20 3 27 17 27 10 0 18 -3 19 -7 6 -67 27 -91 66 -77 27 9 47 54
24 54 -6 0 -11 -7 -11 -17 0 -23 -8 -13 -13 17 -3 14 -8 33 -12 43 -4 9 -3 17
3 17 5 0 12 9 15 20 5 21 -15 49 -36 51 -35 4 -146 4 -156 1z m113 -28 c27
-10 20 -44 -9 -44 -18 0 -25 5 -25 18 0 29 9 36 34 26z"/>
<path d="M3141 1360 c-4 -8 -18 -43 -31 -78 -12 -34 -27 -65 -31 -68 -5 -3 -9
-11 -9 -19 0 -16 72 -14 78 3 2 7 -2 12 -8 12 -6 0 -10 8 -8 17 4 24 58 26 58
2 0 -9 -6 -19 -12 -22 -25 -9 4 -22 50 -22 53 -1 68 11 43 34 -10 9 -27 48
-39 87 -22 69 -23 72 -53 70 -17 0 -34 -8 -38 -16z m31 -63 c3 -15 0 -24 -9
-24 -13 0 -18 29 -6 40 9 10 10 9 15 -16z"/>
<path d="M3320 1364 c0 -6 6 -14 14 -17 19 -8 16 -125 -3 -137 -25 -15 -1 -27
51 -25 29 1 54 7 56 13 2 7 -3 12 -12 12 -11 0 -16 9 -16 30 0 27 3 30 29 30
54 0 81 16 81 49 0 15 -7 34 -15 41 -21 17 -185 21 -185 4z m130 -29 c10 -12
10 -18 0 -30 -19 -23 -40 -18 -40 8 0 38 18 48 40 22z"/>
<path d="M3581 1372 c-16 -5 -13 -22 4 -22 22 0 21 -117 -2 -142 -9 -10 -12
-18 -7 -19 5 0 29 -1 54 -2 48 -2 48 -2 35 56 -5 25 -3 27 24 27 25 0 29 -3
26 -22 -11 -67 -13 -63 30 -61 72 2 70 1 52 21 -20 22 -25 142 -6 142 6 0 9 6
7 12 -3 7 -24 13 -52 13 -43 1 -47 -1 -41 -19 13 -43 11 -51 -15 -51 -25 0
-28 8 -15 50 6 19 2 21 -39 21 -24 0 -49 -2 -55 -4z"/>
<path d="M3846 1364 c-3 -7 2 -15 10 -18 17 -7 57 -72 62 -100 1 -12 -5 -27
-15 -34 -25 -18 -5 -28 52 -26 53 2 68 11 42 25 -9 6 -17 19 -17 29 0 22 38
91 57 103 27 17 13 34 -28 33 -36 0 -40 -2 -35 -22 9 -33 -3 -57 -20 -43 -16
13 -19 39 -4 39 5 0 7 6 4 13 -6 17 -102 18 -108 1z"/>
</g>
</svg>
